<svg width="253" height="80" viewBox="0 0 253 80" fill="none" xmlns="http://www.w3.org/2000/svg">
<path fill-rule="evenodd" clip-rule="evenodd" d="M39.9999 1.59595C61.1559 1.59595 78.3079 18.7479 78.3079 39.9039C78.3079 61.06 61.1559 78.212 39.9999 78.212C18.8439 78.212 1.69189 61.06 1.69189 39.9039C1.69189 18.7439 18.8439 1.59595 39.9999 1.59595Z" fill="#F5F5F5"/>
<path fill-rule="evenodd" clip-rule="evenodd" d="M40 10.936C56.052 10.936 69.064 23.948 69.064 40C69.064 56.052 56.052 69.064 40 69.064C23.948 69.064 10.936 56.052 10.936 40C10.936 23.948 23.948 10.936 40 10.936Z" fill="#0B4CA0"/>
<path d="M73.38 33.9199L72.672 34.056C72.264 34.136 71.9719 33.9399 71.9039 33.5839C71.8359 33.2319 72.0359 32.9239 72.4399 32.8439L74.5359 32.4439L74.24 30.8959L73.5879 31.0199L73.728 31.7519L72.2879 32.0279C71.464 32.1839 71.0439 32.8479 71.2079 33.7199C71.3719 34.5839 72.0079 35.0319 72.832 34.8759L73.5399 34.7399L73.38 33.9199ZM72.0959 28.7479C72.4839 28.6119 72.812 28.7799 72.932 29.1199C73.0519 29.4559 72.896 29.7719 72.504 29.9079L70.492 30.6159L70.7679 31.4039L72.78 30.6959C73.572 30.4159 73.892 29.7159 73.6 28.8799C73.3039 28.0399 72.6079 27.6839 71.8159 27.9599L69.8039 28.6679L70.0799 29.4559L72.0959 28.7479ZM70.752 25.5039C71.124 25.3319 71.4679 25.4679 71.6199 25.7919C71.7719 26.1159 71.6479 26.4439 71.2719 26.6199L70.7679 26.8559L71.1199 27.6119L71.6239 27.3759C72.3839 27.0199 72.6359 26.2879 72.2599 25.4879C71.8839 24.6839 71.156 24.3919 70.396 24.7479L68.4639 25.6519L68.816 26.4079L70.752 25.5039ZM67.816 22.0039L68.2399 22.7199C67.9119 22.9199 67.8479 23.2799 68.072 23.6839C68.296 24.0759 68.5719 24.2679 68.8279 24.1199C69.4719 23.7439 67.8279 22.1279 69.02 21.4199C69.5 21.1359 70.116 21.4279 70.56 22.1999C70.9159 22.8159 70.988 23.6199 70.392 23.9759L69.964 23.2559C70.1359 23.1759 70.1919 22.9039 69.9799 22.5399C69.7879 22.2079 69.572 22.0559 69.3999 22.1519C68.8639 22.4639 70.4559 24.1599 69.1839 24.8719C68.5639 25.2239 67.8999 24.7319 67.4879 24.0159C67.0839 23.3039 67.0439 22.4199 67.816 22.0039ZM67.7079 20.5319L67.1279 20.9559C66.7919 21.1999 66.444 21.1479 66.232 20.8599C66.02 20.5679 66.0719 20.2039 66.3999 19.9639L68.1239 18.7079L67.1959 17.4319L66.66 17.8239L67.096 18.4239L65.912 19.2879C65.236 19.7839 65.1359 20.5599 65.66 21.2759C66.18 21.9879 66.944 22.1239 67.6199 21.6279L68.2 21.2039L67.7079 20.5319ZM65.832 17.9559L66.3079 17.4919L64.7799 15.9319L65.2799 15.4399L64.6959 14.8439L63.1679 16.3359C62.5679 16.9239 62.5799 17.7039 63.2039 18.3399C63.82 18.9719 64.596 18.9959 65.1959 18.4079L65.36 18.2479L64.776 17.6519L64.6119 17.8119C64.316 18.1039 63.964 18.0999 63.716 17.8479C63.464 17.5919 63.46 17.2199 63.752 16.9319L64.3039 16.3919L65.832 17.9559ZM63.06 14.2839L62.576 14.8559C62.316 15.1159 62.0159 15.1279 61.7439 14.8999C61.4399 14.6439 61.4759 14.3119 61.7439 13.9959L62.604 12.9759L61.9679 12.4359L61.1079 13.4559C60.5679 14.0959 60.5999 14.8559 61.284 15.4359C61.4679 15.5919 61.6759 15.6559 61.896 15.6599L61.2879 16.3759L61.924 16.9159L63.692 14.8239L63.06 14.2839ZM58.5439 10.8039C58.34 10.6759 58.1279 10.6239 57.924 10.6279L58.36 9.93195L57.652 9.49195L55.8239 12.4199L56.532 12.8599L57.312 11.6119C57.528 11.2639 57.8399 11.2039 58.1679 11.4119C58.5039 11.6199 58.54 11.9719 58.32 12.3199L58.076 12.7159L58.784 13.1559L59.032 12.7599C59.472 12.0439 59.312 11.2799 58.5439 10.8039ZM53.232 9.42395L53.5279 8.82795L54.9679 9.54395C55.3839 9.75195 55.6079 9.75595 55.7079 9.54795C55.7999 9.36395 55.664 9.14395 55.296 8.95995C54.968 8.79195 54.74 8.81595 54.636 8.96795L53.8879 8.59595C54.2079 8.02795 54.9519 8.05995 55.5679 8.37195C56.1839 8.68395 56.7559 9.31995 56.4479 9.93995C56.3119 10.2119 55.9999 10.3439 55.7079 10.2759C56.1319 10.6999 56.116 11.1039 55.9599 11.3999C55.66 11.9599 54.8919 12.0199 54.0479 11.6039C53.3159 11.2439 52.72 10.4959 53.092 9.80795L53.84 10.1799C53.7039 10.4519 53.9039 10.7879 54.336 11.0039C54.756 11.2119 55.0959 11.2559 55.2439 10.9599C55.3439 10.7599 55.2799 10.4479 54.68 10.1519L53.232 9.42395ZM52.652 10.2159L52.156 9.41595C52.184 9.35195 52.212 9.28795 52.236 9.21595L52.896 7.18795L52.104 6.93195L51.4399 8.95995C51.312 9.35595 51 9.51595 50.6639 9.40795C50.32 9.29595 50.144 8.97195 50.272 8.57995L50.932 6.55195L50.1399 6.29595L49.4799 8.32395C49.22 9.11995 49.596 9.80795 50.444 10.0839C50.9199 10.2399 51.352 10.1959 51.68 9.98795L52.06 10.5999L52.652 10.2159ZM48.444 6.56395L48.284 7.29595C48.1759 7.64395 47.916 7.79995 47.572 7.72395C47.184 7.63995 47.0599 7.32795 47.1479 6.92395L47.432 5.61995L46.616 5.44395L46.332 6.74795C46.152 7.56795 46.5359 8.22395 47.416 8.41595C47.652 8.46795 47.868 8.42395 48.06 8.32795L47.86 9.24395L48.676 9.41995L49.2599 6.74395L48.444 6.56395ZM44.4399 5.75595C44.1999 5.72795 43.9879 5.77195 43.8039 5.86395L43.896 5.04795L43.0679 4.95195L42.6759 8.37995L43.5039 8.47595L43.672 7.01195C43.72 6.60395 43.9759 6.41595 44.3599 6.46395C44.7559 6.50795 44.9359 6.80795 44.8879 7.21595L44.8359 7.67995L45.6639 7.77595L45.716 7.31195C45.812 6.47595 45.3359 5.85595 44.4399 5.75595ZM39.216 7.05995L40.0519 7.07195C40.0519 7.45595 40.3279 7.69995 40.7879 7.71595C41.2399 7.73195 41.548 7.59195 41.556 7.29595C41.5719 6.54795 39.3319 7.11195 39.3519 5.72795C39.3599 5.17195 39.9279 4.79595 40.8199 4.81595C41.5319 4.83595 42.256 5.18795 42.2519 5.88395L41.4119 5.87195C41.4319 5.68395 41.2279 5.49595 40.8119 5.48395C40.4279 5.47595 40.1839 5.57995 40.1799 5.77595C40.1679 6.39595 42.4439 5.91995 42.3879 7.37595C42.3639 8.08795 41.5999 8.39995 40.7759 8.37995C39.944 8.35995 39.1679 7.93195 39.216 7.05995ZM38.736 6.20395L38.6759 5.53995L36.4999 5.73195L36.4399 5.03995L35.6079 5.11195L35.7959 7.23595C35.8679 8.07195 36.4839 8.55595 37.3719 8.47995C38.2519 8.40395 38.7599 7.81595 38.6839 6.97995L38.6639 6.75195L37.8319 6.82395L37.8519 7.05195C37.8879 7.46395 37.6639 7.73595 37.3119 7.76795C36.9519 7.79995 36.6639 7.56795 36.6279 7.15995L36.5599 6.39195L38.736 6.20395ZM34.3039 6.77595L34.4399 7.48395C34.5199 7.89195 34.3239 8.18395 33.9679 8.25195C33.6159 8.31995 33.3079 8.11995 33.2279 7.71595L32.8279 5.61995L31.2799 5.91595L31.4039 6.56795L32.1319 6.42795L32.4079 7.86795C32.5639 8.69195 33.2279 9.11195 34.0999 8.94395C34.9639 8.77995 35.4119 8.14395 35.2559 7.31995L35.1199 6.61195L34.3039 6.77595ZM31.3039 7.36395L31.1159 6.72795L29.0239 7.35195L28.8239 6.68395L28.0239 6.91995L28.6319 8.96395C28.8719 9.76795 29.5719 10.1199 30.4239 9.86795C31.2719 9.61595 31.6519 8.93995 31.4119 8.13595L31.3479 7.91595L30.5479 8.15195L30.6119 8.37195C30.7319 8.76795 30.5639 9.07995 30.2239 9.17995C29.8799 9.28395 29.5479 9.11595 29.4319 8.71995L29.2119 7.97995L31.3039 7.36395ZM26.8159 9.64795L26.2799 9.89995C25.8519 10.0759 25.5239 9.99995 25.2999 9.55995C25.1199 9.18795 25.2839 8.83595 25.6519 8.65995C26.0159 8.49195 26.3199 8.57995 26.4239 8.80395L26.8159 9.64795ZM28.2079 8.99595L27.5679 9.29595L27.1759 8.45195C26.9 7.85995 26.2279 7.59595 25.3479 8.01595C24.5199 8.40395 24.2199 9.18795 24.5519 9.89595C24.8679 10.5719 25.5919 10.9399 26.5159 10.5159L27.0999 10.2439L27.4239 10.9439L28.1759 10.5919L27.8479 9.89195L28.4879 9.59195L28.2079 8.99595ZM22.1279 11.4399L22.5239 12.0399C22.7519 12.3879 22.6839 12.7319 22.3839 12.9279C22.0839 13.1239 21.7199 13.0599 21.4959 12.7159L20.3199 10.9359L19.0039 11.8039L19.3719 12.3599L19.9919 11.9519L20.7999 13.1759C21.2599 13.8759 22.0319 14.0119 22.7759 13.5239C23.5119 13.0399 23.6839 12.2839 23.2199 11.5799L22.8239 10.9799L22.1279 11.4399ZM20.7079 14.1439L19.7679 14.1679C19.7279 14.1119 19.6839 14.0519 19.6359 13.9999L18.2199 12.4039L17.5919 12.9599L19.0079 14.5559C19.2839 14.8679 19.2639 15.2159 18.9999 15.4519C18.7319 15.6919 18.3599 15.6799 18.0879 15.3719L16.6719 13.7759L16.0479 14.3319L17.4639 15.9279C18.0199 16.5559 18.8039 16.5799 19.4679 15.9879C19.8439 15.6559 20.0239 15.2639 20.0079 14.8719L20.7279 14.8519L20.7079 14.1439ZM15.4239 15.9399L15.9719 16.4479C16.2159 16.7199 16.2199 17.0199 15.9759 17.2799C15.7039 17.5719 15.3759 17.5159 15.0719 17.2359L14.0919 16.3279L13.5239 16.9399L14.5039 17.8479C15.1199 18.4199 15.8799 18.4239 16.4919 17.7679C16.6559 17.5919 16.7279 17.3839 16.7439 17.1679L17.4319 17.8079L17.9999 17.1959L15.9959 15.3319L15.4239 15.9399ZM15.5759 18.9999L14.6559 19.2039C14.6079 19.1559 14.5519 19.1079 14.4959 19.0639L12.8039 17.7679L12.2959 18.4319L13.9879 19.7279C14.3159 19.9799 14.3679 20.3279 14.1519 20.6119C13.9319 20.8959 13.5679 20.9559 13.2399 20.7079L11.5479 19.4119L11.0399 20.0639L12.7319 21.3599C13.3999 21.8719 14.1719 21.7439 14.7119 21.0399C15.0159 20.6399 15.1199 20.2199 15.0319 19.8439L15.7359 19.6879L15.5759 18.9999ZM10.8279 21.7919L11.4639 22.1879C11.7559 22.4079 11.8159 22.7039 11.6279 23.0039C11.4199 23.3399 11.0839 23.3519 10.7319 23.1319L9.59995 22.4239L9.15995 23.1319L10.2919 23.8399C11.0039 24.2839 11.7519 24.1439 12.2279 23.3799C12.3559 23.1759 12.3879 22.9599 12.3599 22.7439L13.1559 23.2399L13.5959 22.5319L11.2719 21.0839L10.8279 21.7919ZM10.4799 25.3839L10.5279 25.4079C10.8799 25.5839 10.9319 25.9039 10.7679 26.2399C10.6079 26.5639 10.2199 26.7399 9.87595 26.5719C9.49595 26.3839 9.29195 26.0079 9.42795 25.4279L10.5119 24.4799L9.85995 24.1559L7.63995 26.0839L8.29195 26.4079L8.81995 25.9519C8.72395 26.5039 8.93195 27.0359 9.50395 27.3199C10.2359 27.6839 11.0119 27.3519 11.4079 26.5559C11.7999 25.7679 11.6599 25.0359 10.9039 24.6599L10.8559 24.6359L10.4799 25.3839ZM8.19195 28.8479L9.05195 29.1279C9.27595 29.1999 9.49595 29.4239 9.35595 29.8639C9.20795 30.2959 8.85595 30.4319 8.44395 30.2959C8.03195 30.1519 7.87595 29.8479 7.98395 29.4959L8.19195 28.8479ZM8.04795 27.1399L7.81995 27.8479L7.09995 27.6159L6.84395 28.4079L7.56395 28.6399L7.30395 29.4399C7.05195 30.2279 7.48395 30.8639 8.19995 31.0959C8.91595 31.3279 9.71595 30.9319 9.99195 30.0799C10.2959 29.1759 10.0239 28.5599 9.39595 28.3559L8.45595 28.0519L8.68395 27.3439L8.04795 27.1399ZM8.07995 31.4159L7.61595 33.5479L6.75995 33.3599C6.35995 33.2719 6.16795 32.9559 6.24395 32.6039C6.31995 32.2559 6.61595 32.0679 7.02395 32.1559L7.25595 32.2079L7.43195 31.3919L7.19995 31.3399C6.37995 31.1599 5.73595 31.5919 5.54795 32.4559C5.35995 33.3239 5.76395 33.9959 6.58395 34.1759L8.73995 34.6439L8.91595 33.8279L8.26395 33.6879L8.72795 31.5559L8.07995 31.4159Z" fill="#DA1A21"/>
<path d="M72.3279 46.9839L71.7119 46.4839C71.4039 46.7759 71.1279 47.2359 71.0039 47.7239C70.8039 48.5279 71.0759 49.1559 71.7039 49.3119C72.9039 49.6079 72.9879 47.7639 73.5719 47.9079C73.7559 47.9559 73.8119 48.1399 73.7479 48.3959C73.6639 48.7439 73.3279 49.2119 72.9399 49.4799L73.5359 49.9879C73.9679 49.6719 74.3239 49.1399 74.4599 48.5839C74.6439 47.8399 74.4359 47.1519 73.7479 46.9799C72.5279 46.6799 72.4159 48.5159 71.8439 48.3759C71.6879 48.3359 71.6439 48.1799 71.6959 47.9719C71.7719 47.6959 72.0359 47.2839 72.3279 46.9839ZM71.4639 50.6919L71.0479 49.9919C70.5919 50.1919 70.1919 50.6199 70.0199 51.0999C69.6679 52.0879 70.1119 53.0879 71.0639 53.4279C72.0239 53.7719 73.0119 53.3039 73.3599 52.3319C73.5319 51.8519 73.4759 51.2479 73.2359 50.7719L72.5279 51.0759C72.6799 51.3839 72.7159 51.7479 72.6199 52.0159C72.4399 52.5159 71.8999 52.7479 71.3679 52.5599C70.8319 52.3679 70.5639 51.8439 70.7439 51.3479C70.8439 51.0559 71.1199 50.8079 71.4639 50.6919ZM68.6399 54.4439L71.7479 55.9239L72.1359 55.1119L69.0279 53.6319L68.6399 54.4439ZM66.7719 57.6519L67.4039 58.0359L67.9319 57.1639L70.2399 58.5639L70.7079 57.7959L68.3999 56.3959L68.9359 55.5159L68.3039 55.1319L66.7719 57.6519ZM64.7399 60.4159L67.4879 62.4879L69.1519 60.2799L68.5799 59.8479L67.4559 61.3399L66.9399 60.9519L67.9239 59.6399L67.3559 59.2119L66.3679 60.5199L65.8519 60.1319L66.9439 58.6799L66.3719 58.2479L64.7399 60.4159ZM63.5919 61.7559L65.0479 63.2279L62.4799 62.8479L61.9159 63.4039L64.3319 65.8559L64.9319 65.2679L63.4879 63.8039L66.0439 64.1759L66.6039 63.6239L64.1879 61.1719L63.5919 61.7559ZM59.0479 65.8079L61.2119 68.4839L63.3599 66.7439L62.9079 66.1879L61.4559 67.3599L61.0479 66.8559L62.3199 65.8199L61.8719 65.2639L60.5959 66.2959L60.1919 65.7959L61.6039 64.6519L61.1519 64.0959L59.0479 65.8079ZM59.0359 68.9679C58.9119 69.1639 58.7599 69.3279 58.6119 69.4159C58.1319 69.6999 57.5439 69.5399 57.2479 69.0399C56.9559 68.5479 57.0919 67.9559 57.5679 67.6759C57.8399 67.5159 58.2119 67.4639 58.5439 67.5399L58.6639 66.7399C58.1999 66.6519 57.6279 66.7559 57.1839 67.0199C56.2479 67.5759 55.9359 68.6399 56.4559 69.5119C56.9759 70.3879 58.0479 70.6439 58.9519 70.1079C59.3639 69.8639 59.7719 69.4039 59.9519 68.9879L59.2519 67.8119L58.5839 68.2079L59.0359 68.9679ZM51.6239 69.9039L52.9399 73.0839L55.1159 72.1839L54.8239 71.4759L53.4759 72.0319L52.4519 69.5599L51.6239 69.9039ZM49.2399 72.9319L49.3399 71.6159L50.1519 72.6519L49.2399 72.9319ZM51.0119 73.7479L51.9279 73.4679L49.5399 70.5999L48.6559 70.8719L48.2519 74.5959L49.1359 74.3239L49.1879 73.6719L50.6119 73.2359L51.0119 73.7479ZM46.6479 72.5959L47.0679 71.8959C46.6719 71.5879 46.1079 71.4439 45.6039 71.5199C44.5639 71.6799 43.8999 72.5479 44.0559 73.5479C44.2119 74.5559 45.0919 75.1999 46.1159 75.0439C46.6199 74.9679 47.1239 74.6279 47.4279 74.1919L46.8239 73.7159C46.6239 73.9959 46.3239 74.1999 46.0399 74.2439C45.5159 74.3239 45.0519 73.9599 44.9639 73.3999C44.8759 72.8359 45.2079 72.3519 45.7359 72.2719C46.0279 72.2239 46.3799 72.3479 46.6479 72.5959ZM42.0199 71.9639L42.2119 75.3999L43.1079 75.3479L42.9159 71.9119L42.0199 71.9639ZM39.2279 74.7239L38.6199 74.6999L38.7039 72.7199L39.2679 72.7439C39.8119 72.7679 40.1839 73.1839 40.1559 73.7799C40.1319 74.3639 39.7479 74.7439 39.2279 74.7239ZM39.3199 72.0079L37.8399 71.9439L37.6919 75.3839L39.1399 75.4439C40.2519 75.4919 41.0319 74.8279 41.0759 73.7999C41.1199 72.7839 40.4079 72.0559 39.3199 72.0079ZM34.1479 71.5199L33.6599 74.9279L36.3959 75.3199L36.4959 74.6119L34.6479 74.3479L34.7399 73.7079L36.3639 73.9359L36.4639 73.2319L34.8399 72.9999L34.9319 72.3639L36.7319 72.6199L36.8319 71.9119L34.1479 71.5199ZM29.4719 70.2559L28.4799 73.5519L29.2479 73.7839L29.8759 71.6959L30.1919 73.7079L30.7479 73.8759L32.1199 72.3719L31.4959 74.4599L32.2599 74.6879L33.2519 71.3919L32.3159 71.1079L30.7879 72.7479L30.4159 70.5319L29.4719 70.2559ZM25.0759 68.3319L23.5959 71.4399L24.4079 71.8279L24.9439 70.7079L26.3359 71.3719L26.6439 70.7239L25.2519 70.0599L25.5799 69.3679L27.0879 70.0879L27.3999 69.4439L25.0759 68.3319ZM22.3879 67.5319C22.8279 67.7999 22.9559 68.3879 22.6559 68.8759C22.3559 69.3719 21.7719 69.5359 21.3319 69.2679C20.8959 69.0039 20.7519 68.3999 21.0519 67.9039C21.3519 67.4159 21.9479 67.2639 22.3879 67.5319ZM22.7719 66.8759C21.8599 66.3239 20.7919 66.5519 20.2639 67.4199C19.7319 68.2959 20.0159 69.3639 20.9239 69.9159C21.8359 70.4679 22.9159 70.2239 23.4439 69.3479C23.9719 68.4879 23.6839 67.4319 22.7719 66.8759ZM17.6159 63.7959L18.0959 64.2359C18.3639 64.4839 18.3959 64.7599 18.1639 65.0079C17.9279 65.2639 17.6479 65.2599 17.3799 65.0119L16.8999 64.5679L17.6159 63.7959ZM17.3759 67.2799L17.6119 65.9679C18.0439 66.0839 18.4639 65.9519 18.8159 65.5679C19.3359 65.0039 19.2519 64.3279 18.5799 63.7079L17.4439 62.6599L15.1119 65.1919L15.7719 65.7999L16.4159 65.0999L16.8919 65.5399L16.9079 65.5519L16.6319 66.5919L17.3759 67.2799ZM14.9519 59.8759L12.3839 62.1679L14.2239 64.2319L14.7599 63.7559L13.5199 62.3599L14.0039 61.9279L15.0999 63.1479L15.6319 62.6719L14.5399 61.4479L15.0199 61.0199L16.2279 62.3759L16.7639 61.8999L14.9519 59.8759ZM12.9479 56.9079L12.3279 57.3159L12.8919 58.1679L10.6399 59.6559L11.1359 60.4039L13.3879 58.9159L13.9559 59.7759L14.5759 59.3679L12.9479 56.9079ZM12.0959 55.4599L10.2679 56.4359L11.3639 54.0839L10.9919 53.3879L7.95188 54.9999L8.34388 55.7399L10.1599 54.7759L9.07588 57.1199L9.44388 57.8159L12.4839 56.1999L12.0959 55.4599ZM9.72388 50.0719L6.48388 51.2359L7.41988 53.8359L8.09588 53.5919L7.46388 51.8359L8.07188 51.6159L8.63188 53.1559L9.30388 52.9159L8.74788 51.3719L9.35188 51.1559L9.96788 52.8639L10.6439 52.6199L9.72388 50.0719ZM8.20788 49.0719L8.94388 49.4199C9.21188 48.9959 9.30388 48.4199 9.17588 47.9279C8.91588 46.9079 7.98788 46.3319 7.00788 46.5799C6.01988 46.8319 5.45988 47.7679 5.71588 48.7719C5.84388 49.2679 6.22388 49.7359 6.69188 49.9959L7.10788 49.3479C6.81188 49.1759 6.57588 48.8959 6.50788 48.6199C6.37588 48.1079 6.69588 47.6079 7.24388 47.4719C7.79588 47.3319 8.30788 47.6159 8.43988 48.1279C8.51988 48.4199 8.42788 48.7839 8.20788 49.0719Z" fill="#DA1A21"/>
<path fill-rule="evenodd" clip-rule="evenodd" d="M8.08005 38.564C7.70805 38.192 7.19205 37.96 6.62005 37.96C6.04805 37.96 5.53205 38.192 5.16005 38.564C4.78805 38.936 4.55605 39.456 4.55605 40.024C4.55605 40.596 4.78805 41.112 5.16005 41.484C5.53205 41.856 6.04805 42.088 6.62005 42.088C7.19205 42.088 7.70805 41.856 8.08005 41.484C8.45205 41.112 8.68405 40.592 8.68405 40.024C8.68805 39.456 8.45605 38.94 8.08005 38.564ZM8.77605 38.288L9.78405 37.28V38.38H10.3561V36.872V36.3H9.78405H8.27605V36.872H9.38005L8.37205 37.88C7.89605 37.488 7.28405 37.256 6.62005 37.256C5.85605 37.256 5.16405 37.564 4.66405 38.068C4.16405 38.568 3.85205 39.26 3.85205 40.024C3.85205 40.788 4.16005 41.48 4.66405 41.98C5.16405 42.48 5.85605 42.792 6.62005 42.792C7.38405 42.792 8.07605 42.484 8.57605 41.98C9.07605 41.48 9.38805 40.788 9.38805 40.024C9.38805 39.368 9.15605 38.764 8.77605 38.288Z" fill="#0B4CA0"/>
<path fill-rule="evenodd" clip-rule="evenodd" d="M30.2359 24.7959C29.5919 25.3719 29.2159 25.7679 28.6519 26.3599C27.7279 27.3319 26.3999 29.0599 25.7519 30.1519C20.6879 37.6959 20.6239 46.3159 24.2079 54.2599C26.7959 59.5199 32.1599 64.9039 40.0199 64.9559C45.7919 64.9039 51.5279 61.9719 55.4199 55.0559C57.0799 52.3919 58.1759 47.7599 58.2639 45.0479C58.3039 43.9599 58.3039 43.7039 58.2959 42.9199C58.2319 41.6719 58.1959 39.8519 57.2799 36.5479C56.9919 35.7799 56.7839 34.9039 56.2679 33.8159C55.7879 32.7999 54.9319 31.1159 54.3079 30.2919C53.7399 29.5439 53.6679 29.3759 53.0439 28.6319C53.0079 28.5919 52.0559 27.4839 51.6159 27.1079C50.5879 27.7999 49.0479 28.2359 47.6319 28.3319C47.6759 28.4799 47.6759 28.4479 47.6999 28.6039C48.0119 30.6159 47.2719 33.7959 46.5719 35.8199L46.5759 35.8119C47.3479 37.0199 47.7959 38.4559 47.7959 39.9999C47.7959 44.3039 44.3079 47.7919 40.0039 47.7919C35.6999 47.7919 32.2119 44.3039 32.2119 39.9999C32.2119 38.9599 32.4159 37.9679 32.7839 37.0639L32.8599 37.2319C33.0239 37.5879 33.1199 37.8119 33.2519 38.0879C34.4279 40.5719 35.1439 43.1359 38.2359 43.1559C44.7039 43.2039 47.7319 32.1679 47.1279 28.6519L47.0719 28.3279C44.9519 28.2279 43.5959 27.2639 42.7559 26.3919C42.3079 25.9279 42.1359 25.3999 42.1039 25.2559L42.0279 24.9919C41.7199 24.9879 41.2079 25.7319 41.7999 27.0599C43.7999 32.3559 43.7479 32.9359 43.3399 35.0319C39.9439 41.6599 35.6239 38.6959 39.9879 31.0079C41.1799 28.9119 41.6279 26.7199 40.2199 24.4279C39.8799 23.8719 39.1039 22.9359 38.5199 22.5679C37.7079 22.0519 36.3199 21.8759 35.2599 22.0599C33.3479 22.3959 31.5799 23.6639 30.2359 24.7959Z" fill="#F5F5F5"/>
<path fill-rule="evenodd" clip-rule="evenodd" d="M27.7399 26.0758C27.8319 26.1278 27.9159 26.1798 27.9879 26.2238C30.3999 23.6278 32.6119 22.4438 34.4239 21.2838C38.1559 18.8998 37.1759 19.4958 39.2799 18.4918C38.6359 18.1758 37.9959 17.8798 37.3919 17.6278C36.1079 17.0878 34.7999 16.4838 33.5159 16.1918C29.4039 15.2558 25.6919 18.2558 25.9079 22.4878C26.0639 23.9318 26.7399 25.1798 27.7399 26.0758Z" fill="#F5F5F5"/>
<path fill-rule="evenodd" clip-rule="evenodd" d="M35.0879 21.528C36.2039 21.268 38.1519 21.496 39.0959 22.272C40.1039 23.104 40.8359 24.212 41.1599 25.052C41.5999 24.3 42.0279 24.44 42.4479 24.444C42.5879 24.936 42.6319 25.34 42.9279 25.724C43.5719 26.564 44.6239 27.248 45.7399 27.564C47.3239 28.012 49.2159 27.668 50.6639 27.008C51.0519 26.832 51.3199 26.64 51.6559 26.408C52.7119 25.676 53.5799 24.656 53.9519 23.348C54.8879 20.068 52.3359 16.3 48.5119 16.044C47.4879 15.948 46.4519 16.16 45.4839 16.484C44.4799 16.796 43.4639 17.22 42.4719 17.636C39.7639 18.768 36.2719 20.768 35.0879 21.528Z" fill="#F5F5F5"/>
<path d="M74.9399 38.564C74.5679 38.192 74.0479 37.96 73.4799 37.96C72.9079 37.96 72.3919 38.192 72.0199 38.564C71.6479 38.936 71.4159 39.456 71.4159 40.024C71.4159 40.596 71.6479 41.112 72.0199 41.484C72.3919 41.856 72.9119 42.088 73.4799 42.088C74.0519 42.088 74.5679 41.856 74.9399 41.484C75.3119 41.112 75.5439 40.592 75.5439 40.024C75.5439 39.456 75.3159 38.94 74.9399 38.564ZM73.4799 37.26C74.2439 37.26 74.9359 37.568 75.4359 38.072C75.9359 38.572 76.2479 39.264 76.2479 40.028C76.2479 40.792 75.9359 41.484 75.4359 41.984C74.9999 42.42 74.4199 42.712 73.7719 42.78C73.7679 42.992 73.7679 43.216 73.7679 43.48H74.5279V44.052H73.7679V44.812H73.1999V44.052H72.4399V43.484H73.1999V42.784C72.5479 42.72 71.9639 42.428 71.5239 41.988C71.0239 41.488 70.7119 40.796 70.7119 40.032C70.7119 39.268 71.0199 38.576 71.5239 38.076C72.0239 37.568 72.7159 37.26 73.4799 37.26Z" fill="#0B4CA0"/>
<path fill-rule="evenodd" clip-rule="evenodd" d="M39.9999 2.23193C60.8599 2.23193 77.7679 19.1399 77.7679 39.9999C77.7679 60.8559 60.8599 77.7679 39.9999 77.7679C19.1439 77.7679 2.23193 60.8599 2.23193 39.9999C2.23193 19.1439 19.1439 2.23193 39.9999 2.23193ZM39.9999 1.17993C61.4399 1.17993 78.8199 18.5599 78.8199 39.9999C78.8199 61.4399 61.4399 78.8199 39.9999 78.8199C18.5599 78.8199 1.17993 61.4399 1.17993 39.9999C1.17993 18.5599 18.5599 1.17993 39.9999 1.17993Z" fill="#0B4CA0"/>
<path fill-rule="evenodd" clip-rule="evenodd" d="M36.564 54.408C36.744 53.876 37.1 53.292 37.672 52.732C38.244 52.172 39.032 51.636 39.78 51.116C40.528 50.596 41.228 50.092 41.756 49.608C42.284 49.124 42.636 48.656 42.888 48.212C43.144 47.768 43.3 47.34 43.456 46.916C43.576 47.54 43.7 48.16 43.5 48.828C43.304 49.496 42.788 50.212 42.144 50.816C41.5 51.424 40.732 51.92 40.084 52.364C39.436 52.808 38.908 53.196 38.464 53.596C38.02 53.992 37.66 54.4 37.412 54.736C37.164 55.072 37.032 55.34 36.908 55.64C36.784 55.94 36.676 56.276 36.568 56.608C36.5 56.368 36.428 56.132 36.4 55.772C36.372 55.416 36.38 54.94 36.564 54.408Z" fill="#0B4CA0"/>
<path fill-rule="evenodd" clip-rule="evenodd" d="M39.5599 50.6479C39.0639 50.2919 38.6119 49.9439 38.2439 49.6039C37.7159 49.1199 37.3639 48.6519 37.1119 48.2079C36.8559 47.7639 36.6999 47.3359 36.5439 46.9119C36.4239 47.5319 36.2999 48.1559 36.4999 48.8239C36.6959 49.4919 37.2119 50.2079 37.8559 50.8119C38.0679 51.0119 38.2919 51.1999 38.5199 51.3759L39.5599 50.6479ZM41.0439 51.6919C40.7719 51.4959 40.4919 51.3039 40.2199 51.1159C40.1479 51.0639 40.0719 51.0119 39.9999 50.9639L38.9479 51.7039C39.2799 51.9399 39.6079 52.1599 39.9119 52.3639L39.9999 52.4239L41.0439 51.6919ZM43.2839 54.0399C43.0799 53.6119 42.7679 53.1639 42.3239 52.7319C42.0639 52.4799 41.7639 52.2319 41.4399 51.9879L40.4199 52.7239C40.8439 53.0279 41.2079 53.3079 41.5279 53.5959C41.9719 53.9919 42.3319 54.3999 42.5799 54.7359C42.6759 54.8679 42.7559 54.9879 42.8239 55.1039L43.2839 54.0399Z" fill="#0B4CA0"/>
<path fill-rule="evenodd" clip-rule="evenodd" d="M40.4239 60.888C40.9239 61.248 41.3879 61.6 41.7599 61.944C42.2879 62.428 42.6399 62.896 42.8919 63.34C43.1479 63.784 43.3039 64.212 43.4599 64.636C43.5799 64.016 43.7039 63.392 43.5039 62.724C43.3079 62.056 42.7919 61.34 42.1479 60.736C41.9279 60.528 41.6919 60.332 41.4519 60.148L40.4239 60.888ZM38.9479 59.852C39.2199 60.048 39.5039 60.244 39.7799 60.436C39.8519 60.488 39.9279 60.54 39.9999 60.588L41.0519 59.848C40.7199 59.612 40.3879 59.392 40.0879 59.184L39.9999 59.124L38.9479 59.852ZM36.7039 57.488C36.9079 57.92 37.2239 58.376 37.6719 58.82C37.9319 59.072 38.2319 59.32 38.5559 59.564L39.5879 58.84C39.1599 58.532 38.7879 58.248 38.4639 57.956C38.0199 57.56 37.6599 57.152 37.4119 56.816C37.3079 56.676 37.2279 56.552 37.1559 56.428L36.7039 57.488Z" fill="#0B4CA0"/>
<path fill-rule="evenodd" clip-rule="evenodd" d="M43.4359 57.1399C43.2559 57.6719 42.8999 58.2559 42.3279 58.8159C41.7559 59.3759 40.9679 59.9119 40.2199 60.4319C39.4719 60.9519 38.7719 61.4559 38.2439 61.9399C37.7159 62.4239 37.3639 62.8919 37.1119 63.3359C36.8599 63.7799 36.6999 64.2079 36.5439 64.6319C36.4239 64.0119 36.2999 63.3879 36.4999 62.7199C36.6959 62.0519 37.2119 61.3359 37.8559 60.7319C38.4999 60.1239 39.2679 59.6279 39.9159 59.1839C40.5639 58.7399 41.0919 58.3519 41.5359 57.9519C41.9799 57.5559 42.3399 57.1479 42.5879 56.8119C42.8359 56.4759 42.9679 56.2079 43.0919 55.9079C43.2159 55.6079 43.3239 55.2719 43.4319 54.9399C43.4999 55.1799 43.5679 55.4159 43.5999 55.7759C43.6279 56.1319 43.6199 56.6079 43.4359 57.1399Z" fill="#0B4CA0"/>
<path fill-rule="evenodd" clip-rule="evenodd" d="M43.484 56.792C41.692 56.864 39.896 56.94 38.104 57.012C39.848 57.124 41.592 57.236 43.336 57.344C43.384 57.164 43.432 56.976 43.484 56.792Z" fill="#0B4CA0"/>
<path fill-rule="evenodd" clip-rule="evenodd" d="M42.2319 57.9399C41.2319 57.9919 40.2319 58.0479 39.2319 58.0999C40.2319 58.1839 41.2319 58.2639 42.2319 58.3479C42.2319 58.2119 42.2319 58.0759 42.2319 57.9399Z" fill="#0B4CA0"/>
<path fill-rule="evenodd" clip-rule="evenodd" d="M43.484 56.0318C41.396 55.9478 39.308 55.8678 37.22 55.7838C39.288 55.6798 41.356 55.5798 43.42 55.4758C43.444 55.6638 43.464 55.8478 43.484 56.0318Z" fill="#0B4CA0"/>
<path fill-rule="evenodd" clip-rule="evenodd" d="M42.796 54.7399C41.232 54.6759 39.668 54.6159 38.104 54.5519C39.66 54.4559 41.212 54.3599 42.768 54.2639C42.776 54.4239 42.784 54.5799 42.796 54.7399Z" fill="#0B4CA0"/>
<path fill-rule="evenodd" clip-rule="evenodd" d="M42.2319 53.628C41.2319 53.576 40.2319 53.52 39.2319 53.468C40.2319 53.384 41.2319 53.304 42.2319 53.22C42.2319 53.352 42.2319 53.492 42.2319 53.628Z" fill="#0B4CA0"/>
<path fill-rule="evenodd" clip-rule="evenodd" d="M36.5598 64.26C38.6478 64.192 40.7318 64.124 42.8198 64.056C40.7558 63.94 38.6878 63.824 36.6238 63.708C36.5998 63.888 36.5798 64.072 36.5598 64.26Z" fill="#0B4CA0"/>
<path fill-rule="evenodd" clip-rule="evenodd" d="M36.5598 62.9958C38.3518 62.9238 40.1478 62.8478 41.9398 62.7758C40.1678 62.6638 38.3918 62.5518 36.6198 62.4438C36.5998 62.6278 36.5798 62.8118 36.5598 62.9958Z" fill="#0B4CA0"/>
<path fill-rule="evenodd" clip-rule="evenodd" d="M37.812 61.8518C38.812 61.7998 39.812 61.7438 40.812 61.6918C39.812 61.6078 38.812 61.5278 37.812 61.4438C37.812 61.5798 37.812 61.7158 37.812 61.8518Z" fill="#0B4CA0"/>
<path fill-rule="evenodd" clip-rule="evenodd" d="M36.5598 47.584C38.6478 47.652 40.7318 47.72 42.8198 47.788C40.7558 47.904 38.6878 48.02 36.6238 48.136C36.5998 47.952 36.5798 47.768 36.5598 47.584Z" fill="#0B4CA0"/>
<path fill-rule="evenodd" clip-rule="evenodd" d="M36.5598 48.6838C38.3518 48.7558 40.1478 48.8318 41.9398 48.9038C40.1678 49.0158 38.3918 49.1278 36.6198 49.2358C36.5998 49.0558 36.5798 48.8678 36.5598 48.6838Z" fill="#0B4CA0"/>
<path fill-rule="evenodd" clip-rule="evenodd" d="M37.812 49.7239C38.812 49.7759 39.812 49.8319 40.812 49.8839C39.812 49.9679 38.812 50.0479 37.812 50.1319C37.812 49.9959 37.812 49.8599 37.812 49.7239Z" fill="#0B4CA0"/>
<path d="M110.112 54L103.92 33.84H103.776C103.8 34.32 103.836 35.04 103.884 36C103.932 36.96 103.98 37.992 104.028 39.096C104.076 40.176 104.1 41.16 104.1 42.048V54H99.24V28.296H106.656L112.74 47.952H112.848L119.292 28.296H126.708V54H121.632V41.832C121.632 41.016 121.644 40.08 121.668 39.024C121.716 37.968 121.752 36.972 121.776 36.036C121.824 35.076 121.86 34.356 121.884 33.876H121.74L115.116 54H110.112ZM147.997 54H133.201V28.296H147.997V32.76H138.637V38.412H147.349V42.876H138.637V49.5H147.997V54ZM174.657 40.896C174.657 43.776 174.105 46.188 173.001 48.132C171.897 50.076 170.289 51.54 168.177 52.524C166.089 53.508 163.569 54 160.617 54H153.345V28.296H161.409C164.097 28.296 166.425 28.776 168.393 29.736C170.385 30.696 171.921 32.112 173.001 33.984C174.105 35.832 174.657 38.136 174.657 40.896ZM169.005 41.04C169.005 39.144 168.729 37.584 168.177 36.36C167.625 35.136 166.797 34.236 165.693 33.66C164.613 33.06 163.281 32.76 161.697 32.76H158.781V49.5H161.121C163.785 49.5 165.765 48.792 167.061 47.376C168.357 45.96 169.005 43.848 169.005 41.04ZM189.75 39.564H199.938V52.884C198.594 53.34 197.19 53.7 195.726 53.964C194.286 54.228 192.642 54.36 190.794 54.36C188.25 54.36 186.078 53.856 184.278 52.848C182.502 51.84 181.146 50.352 180.21 48.384C179.298 46.416 178.842 43.992 178.842 41.112C178.842 38.424 179.358 36.096 180.39 34.128C181.446 32.16 182.97 30.636 184.962 29.556C186.954 28.476 189.39 27.936 192.27 27.936C193.638 27.936 194.982 28.08 196.302 28.368C197.622 28.656 198.822 29.04 199.902 29.52L198.102 33.876C197.31 33.468 196.41 33.132 195.402 32.868C194.394 32.604 193.338 32.472 192.234 32.472C190.65 32.472 189.27 32.832 188.094 33.552C186.942 34.272 186.042 35.292 185.394 36.612C184.77 37.908 184.458 39.444 184.458 41.22C184.458 42.9 184.686 44.388 185.142 45.684C185.598 46.98 186.318 48 187.302 48.744C188.286 49.464 189.57 49.824 191.154 49.824C191.682 49.824 192.138 49.812 192.522 49.788C192.93 49.74 193.302 49.692 193.638 49.644C193.974 49.572 194.298 49.512 194.61 49.464V44.1H189.75V39.564ZM220.841 54H206.045V28.296H220.841V32.76H211.481V38.412H220.193V42.876H211.481V49.5H220.841V54ZM248.977 54H242.065L230.869 34.56H230.725C230.749 35.16 230.773 35.772 230.797 36.396C230.821 36.996 230.845 37.608 230.869 38.232C230.917 38.832 230.953 39.444 230.977 40.068C231.001 40.668 231.025 41.28 231.049 41.904V54H226.189V28.296H233.065L244.225 47.556H244.333C244.309 46.956 244.285 46.368 244.261 45.792C244.237 45.192 244.213 44.604 244.189 44.028C244.189 43.428 244.177 42.84 244.153 42.264C244.129 41.664 244.105 41.064 244.081 40.464V28.296H248.977V54Z" fill="#0B4CA0"/>
</svg>
