<svg width="80" height="80" viewBox="0 0 80 80" fill="none" xmlns="http://www.w3.org/2000/svg">
<path fill-rule="evenodd" clip-rule="evenodd" d="M39.9999 1.59601C61.1559 1.59601 78.3079 18.748 78.3079 39.904C78.3079 61.06 61.1559 78.212 39.9999 78.212C18.8439 78.212 1.69189 61.06 1.69189 39.904C1.69189 18.744 18.8439 1.59601 39.9999 1.59601Z" fill="#F5F5F5"/>
<path fill-rule="evenodd" clip-rule="evenodd" d="M40 10.936C56.052 10.936 69.064 23.948 69.064 40C69.064 56.052 56.052 69.064 40 69.064C23.948 69.064 10.936 56.052 10.936 40C10.936 23.948 23.948 10.936 40 10.936Z" fill="#0B4CA0"/>
<path d="M73.38 33.92L72.672 34.056C72.264 34.136 71.9719 33.94 71.9039 33.584C71.8359 33.232 72.0359 32.924 72.4399 32.844L74.5359 32.444L74.24 30.896L73.5879 31.02L73.728 31.752L72.2879 32.028C71.464 32.184 71.0439 32.848 71.2079 33.72C71.3719 34.584 72.0079 35.032 72.832 34.876L73.5399 34.74L73.38 33.92ZM72.0959 28.748C72.4839 28.612 72.812 28.78 72.932 29.12C73.0519 29.456 72.896 29.772 72.504 29.908L70.492 30.616L70.7679 31.404L72.78 30.696C73.572 30.416 73.892 29.716 73.6 28.88C73.3039 28.04 72.6079 27.684 71.8159 27.96L69.8039 28.668L70.0799 29.456L72.0959 28.748ZM70.752 25.504C71.124 25.332 71.4679 25.468 71.6199 25.792C71.7719 26.116 71.6479 26.444 71.2719 26.62L70.7679 26.856L71.1199 27.612L71.6239 27.376C72.3839 27.02 72.6359 26.288 72.2599 25.488C71.8839 24.684 71.156 24.392 70.396 24.748L68.4639 25.652L68.816 26.408L70.752 25.504ZM67.816 22.004L68.2399 22.72C67.9119 22.92 67.8479 23.28 68.072 23.684C68.296 24.076 68.5719 24.268 68.8279 24.12C69.4719 23.744 67.8279 22.128 69.02 21.42C69.5 21.136 70.116 21.428 70.56 22.2C70.9159 22.816 70.988 23.62 70.392 23.976L69.964 23.256C70.1359 23.176 70.1919 22.904 69.9799 22.54C69.7879 22.208 69.572 22.056 69.3999 22.152C68.8639 22.464 70.4559 24.16 69.1839 24.872C68.5639 25.224 67.8999 24.732 67.4879 24.016C67.0839 23.304 67.0439 22.42 67.816 22.004ZM67.7079 20.532L67.1279 20.956C66.7919 21.2 66.444 21.148 66.232 20.86C66.02 20.568 66.0719 20.204 66.3999 19.964L68.1239 18.708L67.1959 17.432L66.66 17.824L67.096 18.424L65.912 19.288C65.236 19.784 65.1359 20.56 65.66 21.276C66.18 21.988 66.944 22.124 67.6199 21.628L68.2 21.204L67.7079 20.532ZM65.832 17.956L66.3079 17.492L64.7799 15.932L65.2799 15.44L64.6959 14.844L63.1679 16.336C62.5679 16.924 62.5799 17.704 63.2039 18.34C63.82 18.972 64.596 18.996 65.1959 18.408L65.36 18.248L64.776 17.652L64.6119 17.812C64.316 18.104 63.964 18.1 63.716 17.848C63.464 17.592 63.46 17.22 63.752 16.932L64.3039 16.392L65.832 17.956ZM63.06 14.284L62.576 14.856C62.316 15.116 62.0159 15.128 61.7439 14.9C61.4399 14.644 61.4759 14.312 61.7439 13.996L62.604 12.976L61.9679 12.436L61.1079 13.456C60.5679 14.096 60.5999 14.856 61.284 15.436C61.4679 15.592 61.6759 15.656 61.896 15.66L61.2879 16.376L61.924 16.916L63.692 14.824L63.06 14.284ZM58.5439 10.804C58.34 10.676 58.1279 10.624 57.924 10.628L58.36 9.93201L57.652 9.49201L55.8239 12.42L56.532 12.86L57.312 11.612C57.528 11.264 57.8399 11.204 58.1679 11.412C58.5039 11.62 58.54 11.972 58.32 12.32L58.076 12.716L58.784 13.156L59.032 12.76C59.472 12.044 59.312 11.28 58.5439 10.804ZM53.232 9.42401L53.5279 8.82801L54.9679 9.54401C55.3839 9.75201 55.6079 9.75601 55.7079 9.54801C55.7999 9.36401 55.664 9.14401 55.296 8.96001C54.968 8.79201 54.74 8.81601 54.636 8.96801L53.8879 8.59601C54.2079 8.02801 54.9519 8.06001 55.5679 8.37201C56.1839 8.68401 56.7559 9.32001 56.4479 9.94001C56.3119 10.212 55.9999 10.344 55.7079 10.276C56.1319 10.7 56.116 11.104 55.9599 11.4C55.66 11.96 54.8919 12.02 54.0479 11.604C53.3159 11.244 52.72 10.496 53.092 9.80801L53.84 10.18C53.7039 10.452 53.9039 10.788 54.336 11.004C54.756 11.212 55.0959 11.256 55.2439 10.96C55.3439 10.76 55.2799 10.448 54.68 10.152L53.232 9.42401ZM52.652 10.216L52.156 9.41601C52.184 9.35201 52.212 9.28801 52.236 9.21601L52.896 7.18801L52.104 6.93201L51.4399 8.96001C51.312 9.35601 51 9.51601 50.6639 9.40801C50.32 9.29601 50.144 8.97201 50.272 8.58001L50.932 6.55201L50.1399 6.29601L49.4799 8.32401C49.22 9.12001 49.596 9.80801 50.444 10.084C50.9199 10.24 51.352 10.196 51.68 9.98801L52.06 10.6L52.652 10.216ZM48.444 6.56401L48.284 7.29601C48.1759 7.64401 47.916 7.80001 47.572 7.72401C47.184 7.64001 47.0599 7.32801 47.1479 6.92401L47.432 5.62001L46.616 5.44401L46.332 6.74801C46.152 7.56801 46.5359 8.22401 47.416 8.41601C47.652 8.46801 47.868 8.42401 48.06 8.32801L47.86 9.24401L48.676 9.42001L49.2599 6.74401L48.444 6.56401ZM44.4399 5.75601C44.1999 5.72801 43.9879 5.77201 43.8039 5.86401L43.896 5.04801L43.0679 4.95201L42.6759 8.38001L43.5039 8.47601L43.672 7.01201C43.72 6.60401 43.9759 6.41601 44.3599 6.46401C44.7559 6.50801 44.9359 6.80801 44.8879 7.21601L44.8359 7.68001L45.6639 7.77601L45.716 7.31201C45.812 6.47601 45.3359 5.85601 44.4399 5.75601ZM39.216 7.06001L40.0519 7.07201C40.0519 7.45601 40.3279 7.70001 40.7879 7.71601C41.2399 7.73201 41.548 7.59201 41.556 7.29601C41.5719 6.54801 39.3319 7.11201 39.3519 5.72801C39.3599 5.17201 39.9279 4.79601 40.8199 4.81601C41.5319 4.83601 42.256 5.18801 42.2519 5.88401L41.4119 5.87201C41.4319 5.68401 41.2279 5.49601 40.8119 5.48401C40.4279 5.47601 40.1839 5.58001 40.1799 5.77601C40.1679 6.39601 42.4439 5.92001 42.3879 7.37601C42.3639 8.08801 41.5999 8.40001 40.7759 8.38001C39.944 8.36001 39.1679 7.93201 39.216 7.06001ZM38.736 6.20401L38.6759 5.54001L36.4999 5.73201L36.4399 5.04001L35.6079 5.11201L35.7959 7.23601C35.8679 8.07201 36.4839 8.55601 37.3719 8.48001C38.2519 8.40401 38.7599 7.81601 38.6839 6.98001L38.6639 6.75201L37.8319 6.82401L37.8519 7.05201C37.8879 7.46401 37.6639 7.73601 37.3119 7.76801C36.9519 7.80001 36.6639 7.56801 36.6279 7.16001L36.5599 6.39201L38.736 6.20401ZM34.3039 6.77601L34.4399 7.48401C34.5199 7.89201 34.3239 8.18401 33.9679 8.25201C33.6159 8.32001 33.3079 8.12001 33.2279 7.71601L32.8279 5.62001L31.2799 5.91601L31.4039 6.56801L32.1319 6.42801L32.4079 7.86801C32.5639 8.69201 33.2279 9.11201 34.0999 8.94401C34.9639 8.78001 35.4119 8.14401 35.2559 7.32001L35.1199 6.61201L34.3039 6.77601ZM31.3039 7.36401L31.1159 6.72801L29.0239 7.35201L28.8239 6.68401L28.0239 6.92001L28.6319 8.96401C28.8719 9.76801 29.5719 10.12 30.4239 9.86801C31.2719 9.61601 31.6519 8.94001 31.4119 8.13601L31.3479 7.91601L30.5479 8.15201L30.6119 8.37201C30.7319 8.76801 30.5639 9.08001 30.2239 9.18001C29.8799 9.28401 29.5479 9.11601 29.4319 8.72001L29.2119 7.98001L31.3039 7.36401ZM26.8159 9.64801L26.2799 9.90001C25.8519 10.076 25.5239 10 25.2999 9.56001C25.1199 9.18801 25.2839 8.83601 25.6519 8.66001C26.0159 8.49201 26.3199 8.58001 26.4239 8.80401L26.8159 9.64801ZM28.2079 8.99601L27.5679 9.29601L27.1759 8.45201C26.9 7.86001 26.2279 7.59601 25.3479 8.01601C24.5199 8.40401 24.2199 9.18801 24.5519 9.89601C24.8679 10.572 25.5919 10.94 26.5159 10.516L27.0999 10.244L27.4239 10.944L28.1759 10.592L27.8479 9.89201L28.4879 9.59201L28.2079 8.99601ZM22.1279 11.44L22.5239 12.04C22.7519 12.388 22.6839 12.732 22.3839 12.928C22.0839 13.124 21.7199 13.06 21.4959 12.716L20.3199 10.936L19.0039 11.804L19.3719 12.36L19.9919 11.952L20.7999 13.176C21.2599 13.876 22.0319 14.012 22.7759 13.524C23.5119 13.04 23.6839 12.284 23.2199 11.58L22.8239 10.98L22.1279 11.44ZM20.7079 14.144L19.7679 14.168C19.7279 14.112 19.6839 14.052 19.6359 14L18.2199 12.404L17.5919 12.96L19.0079 14.556C19.2839 14.868 19.2639 15.216 18.9999 15.452C18.7319 15.692 18.3599 15.68 18.0879 15.372L16.6719 13.776L16.0479 14.332L17.4639 15.928C18.0199 16.556 18.8039 16.58 19.4679 15.988C19.8439 15.656 20.0239 15.264 20.0079 14.872L20.7279 14.852L20.7079 14.144ZM15.4239 15.94L15.9719 16.448C16.2159 16.72 16.2199 17.02 15.9759 17.28C15.7039 17.572 15.3759 17.516 15.0719 17.236L14.0919 16.328L13.5239 16.94L14.5039 17.848C15.1199 18.42 15.8799 18.424 16.4919 17.768C16.6559 17.592 16.7279 17.384 16.7439 17.168L17.4319 17.808L17.9999 17.196L15.9959 15.332L15.4239 15.94ZM15.5759 19L14.6559 19.204C14.6079 19.156 14.5519 19.108 14.4959 19.064L12.8039 17.768L12.2959 18.432L13.9879 19.728C14.3159 19.98 14.3679 20.328 14.1519 20.612C13.9319 20.896 13.5679 20.956 13.2399 20.708L11.5479 19.412L11.0399 20.064L12.7319 21.36C13.3999 21.872 14.1719 21.744 14.7119 21.04C15.0159 20.64 15.1199 20.22 15.0319 19.844L15.7359 19.688L15.5759 19ZM10.8279 21.792L11.4639 22.188C11.7559 22.408 11.8159 22.704 11.6279 23.004C11.4199 23.34 11.0839 23.352 10.7319 23.132L9.59995 22.424L9.15995 23.132L10.2919 23.84C11.0039 24.284 11.7519 24.144 12.2279 23.38C12.3559 23.176 12.3879 22.96 12.3599 22.744L13.1559 23.24L13.5959 22.532L11.2719 21.084L10.8279 21.792ZM10.4799 25.384L10.5279 25.408C10.8799 25.584 10.9319 25.904 10.7679 26.24C10.6079 26.564 10.2199 26.74 9.87595 26.572C9.49595 26.384 9.29195 26.008 9.42795 25.428L10.5119 24.48L9.85995 24.156L7.63995 26.084L8.29195 26.408L8.81995 25.952C8.72395 26.504 8.93195 27.036 9.50395 27.32C10.2359 27.684 11.0119 27.352 11.4079 26.556C11.7999 25.768 11.6599 25.036 10.9039 24.66L10.8559 24.636L10.4799 25.384ZM8.19195 28.848L9.05195 29.128C9.27595 29.2 9.49595 29.424 9.35595 29.864C9.20795 30.296 8.85595 30.432 8.44395 30.296C8.03195 30.152 7.87595 29.848 7.98395 29.496L8.19195 28.848ZM8.04795 27.14L7.81995 27.848L7.09995 27.616L6.84395 28.408L7.56395 28.64L7.30395 29.44C7.05195 30.228 7.48395 30.864 8.19995 31.096C8.91595 31.328 9.71595 30.932 9.99195 30.08C10.2959 29.176 10.0239 28.56 9.39595 28.356L8.45595 28.052L8.68395 27.344L8.04795 27.14ZM8.07995 31.416L7.61595 33.548L6.75995 33.36C6.35995 33.272 6.16795 32.956 6.24395 32.604C6.31995 32.256 6.61595 32.068 7.02395 32.156L7.25595 32.208L7.43195 31.392L7.19995 31.34C6.37995 31.16 5.73595 31.592 5.54795 32.456C5.35995 33.324 5.76395 33.996 6.58395 34.176L8.73995 34.644L8.91595 33.828L8.26395 33.688L8.72795 31.556L8.07995 31.416Z" fill="#DA1A21"/>
<path d="M72.3279 46.984L71.7119 46.484C71.4039 46.776 71.1279 47.236 71.0039 47.724C70.8039 48.528 71.0759 49.156 71.7039 49.312C72.9039 49.608 72.9879 47.764 73.5719 47.908C73.7559 47.956 73.8119 48.14 73.7479 48.396C73.6639 48.744 73.3279 49.212 72.9399 49.48L73.5359 49.988C73.9679 49.672 74.3239 49.14 74.4599 48.584C74.6439 47.84 74.4359 47.152 73.7479 46.98C72.5279 46.68 72.4159 48.516 71.8439 48.376C71.6879 48.336 71.6439 48.18 71.6959 47.972C71.7719 47.696 72.0359 47.284 72.3279 46.984ZM71.4639 50.692L71.0479 49.992C70.5919 50.192 70.1919 50.62 70.0199 51.1C69.6679 52.088 70.1119 53.088 71.0639 53.428C72.0239 53.772 73.0119 53.304 73.3599 52.332C73.5319 51.852 73.4759 51.248 73.2359 50.772L72.5279 51.076C72.6799 51.384 72.7159 51.748 72.6199 52.016C72.4399 52.516 71.8999 52.748 71.3679 52.56C70.8319 52.368 70.5639 51.844 70.7439 51.348C70.8439 51.056 71.1199 50.808 71.4639 50.692ZM68.6399 54.444L71.7479 55.924L72.1359 55.112L69.0279 53.632L68.6399 54.444ZM66.7719 57.652L67.4039 58.036L67.9319 57.164L70.2399 58.564L70.7079 57.796L68.3999 56.396L68.9359 55.516L68.3039 55.132L66.7719 57.652ZM64.7399 60.416L67.4879 62.488L69.1519 60.28L68.5799 59.848L67.4559 61.34L66.9399 60.952L67.9239 59.64L67.3559 59.212L66.3679 60.52L65.8519 60.132L66.9439 58.68L66.3719 58.248L64.7399 60.416ZM63.5919 61.756L65.0479 63.228L62.4799 62.848L61.9159 63.404L64.3319 65.856L64.9319 65.268L63.4879 63.804L66.0439 64.176L66.6039 63.624L64.1879 61.172L63.5919 61.756ZM59.0479 65.808L61.2119 68.484L63.3599 66.744L62.9079 66.188L61.4559 67.36L61.0479 66.856L62.3199 65.82L61.8719 65.264L60.5959 66.296L60.1919 65.796L61.6039 64.652L61.1519 64.096L59.0479 65.808ZM59.0359 68.968C58.9119 69.164 58.7599 69.328 58.6119 69.416C58.1319 69.7 57.5439 69.54 57.2479 69.04C56.9559 68.548 57.0919 67.956 57.5679 67.676C57.8399 67.516 58.2119 67.464 58.5439 67.54L58.6639 66.74C58.1999 66.652 57.6279 66.756 57.1839 67.02C56.2479 67.576 55.9359 68.64 56.4559 69.512C56.9759 70.388 58.0479 70.644 58.9519 70.108C59.3639 69.864 59.7719 69.404 59.9519 68.988L59.2519 67.812L58.5839 68.208L59.0359 68.968ZM51.6239 69.904L52.9399 73.084L55.1159 72.184L54.8239 71.476L53.4759 72.032L52.4519 69.56L51.6239 69.904ZM49.2399 72.932L49.3399 71.616L50.1519 72.652L49.2399 72.932ZM51.0119 73.748L51.9279 73.468L49.5399 70.6L48.6559 70.872L48.2519 74.596L49.1359 74.324L49.1879 73.672L50.6119 73.236L51.0119 73.748ZM46.6479 72.596L47.0679 71.896C46.6719 71.588 46.1079 71.444 45.6039 71.52C44.5639 71.68 43.8999 72.548 44.0559 73.548C44.2119 74.556 45.0919 75.2 46.1159 75.044C46.6199 74.968 47.1239 74.628 47.4279 74.192L46.8239 73.716C46.6239 73.996 46.3239 74.2 46.0399 74.244C45.5159 74.324 45.0519 73.96 44.9639 73.4C44.8759 72.836 45.2079 72.352 45.7359 72.272C46.0279 72.224 46.3799 72.348 46.6479 72.596ZM42.0199 71.964L42.2119 75.4L43.1079 75.348L42.9159 71.912L42.0199 71.964ZM39.2279 74.724L38.6199 74.7L38.7039 72.72L39.2679 72.744C39.8119 72.768 40.1839 73.184 40.1559 73.78C40.1319 74.364 39.7479 74.744 39.2279 74.724ZM39.3199 72.008L37.8399 71.944L37.6919 75.384L39.1399 75.444C40.2519 75.492 41.0319 74.828 41.0759 73.8C41.1199 72.784 40.4079 72.056 39.3199 72.008ZM34.1479 71.52L33.6599 74.928L36.3959 75.32L36.4959 74.612L34.6479 74.348L34.7399 73.708L36.3639 73.936L36.4639 73.232L34.8399 73L34.9319 72.364L36.7319 72.62L36.8319 71.912L34.1479 71.52ZM29.4719 70.256L28.4799 73.552L29.2479 73.784L29.8759 71.696L30.1919 73.708L30.7479 73.876L32.1199 72.372L31.4959 74.46L32.2599 74.688L33.2519 71.392L32.3159 71.108L30.7879 72.748L30.4159 70.532L29.4719 70.256ZM25.0759 68.332L23.5959 71.44L24.4079 71.828L24.9439 70.708L26.3359 71.372L26.6439 70.724L25.2519 70.06L25.5799 69.368L27.0879 70.088L27.3999 69.444L25.0759 68.332ZM22.3879 67.532C22.8279 67.8 22.9559 68.388 22.6559 68.876C22.3559 69.372 21.7719 69.536 21.3319 69.268C20.8959 69.004 20.7519 68.4 21.0519 67.904C21.3519 67.416 21.9479 67.264 22.3879 67.532ZM22.7719 66.876C21.8599 66.324 20.7919 66.552 20.2639 67.42C19.7319 68.296 20.0159 69.364 20.9239 69.916C21.8359 70.468 22.9159 70.224 23.4439 69.348C23.9719 68.488 23.6839 67.432 22.7719 66.876ZM17.6159 63.796L18.0959 64.236C18.3639 64.484 18.3959 64.76 18.1639 65.008C17.9279 65.264 17.6479 65.26 17.3799 65.012L16.8999 64.568L17.6159 63.796ZM17.3759 67.28L17.6119 65.968C18.0439 66.084 18.4639 65.952 18.8159 65.568C19.3359 65.004 19.2519 64.328 18.5799 63.708L17.4439 62.66L15.1119 65.192L15.7719 65.8L16.4159 65.1L16.8919 65.54L16.9079 65.552L16.6319 66.592L17.3759 67.28ZM14.9519 59.876L12.3839 62.168L14.2239 64.232L14.7599 63.756L13.5199 62.36L14.0039 61.928L15.0999 63.148L15.6319 62.672L14.5399 61.448L15.0199 61.02L16.2279 62.376L16.7639 61.9L14.9519 59.876ZM12.9479 56.908L12.3279 57.316L12.8919 58.168L10.6399 59.656L11.1359 60.404L13.3879 58.916L13.9559 59.776L14.5759 59.368L12.9479 56.908ZM12.0959 55.46L10.2679 56.436L11.3639 54.084L10.9919 53.388L7.95188 55L8.34388 55.74L10.1599 54.776L9.07588 57.12L9.44388 57.816L12.4839 56.2L12.0959 55.46ZM9.72388 50.072L6.48388 51.236L7.41988 53.836L8.09588 53.592L7.46388 51.836L8.07188 51.616L8.63188 53.156L9.30388 52.916L8.74788 51.372L9.35188 51.156L9.96788 52.864L10.6439 52.62L9.72388 50.072ZM8.20788 49.072L8.94388 49.42C9.21188 48.996 9.30388 48.42 9.17588 47.928C8.91588 46.908 7.98788 46.332 7.00788 46.58C6.01988 46.832 5.45988 47.768 5.71588 48.772C5.84388 49.268 6.22388 49.736 6.69188 49.996L7.10788 49.348C6.81188 49.176 6.57588 48.896 6.50788 48.62C6.37588 48.108 6.69588 47.608 7.24388 47.472C7.79588 47.332 8.30788 47.616 8.43988 48.128C8.51988 48.42 8.42788 48.784 8.20788 49.072Z" fill="#DA1A21"/>
<path fill-rule="evenodd" clip-rule="evenodd" d="M8.08005 38.564C7.70805 38.192 7.19205 37.96 6.62005 37.96C6.04805 37.96 5.53205 38.192 5.16005 38.564C4.78805 38.936 4.55605 39.456 4.55605 40.024C4.55605 40.596 4.78805 41.112 5.16005 41.484C5.53205 41.856 6.04805 42.088 6.62005 42.088C7.19205 42.088 7.70805 41.856 8.08005 41.484C8.45205 41.112 8.68405 40.592 8.68405 40.024C8.68805 39.456 8.45605 38.94 8.08005 38.564ZM8.77605 38.288L9.78405 37.28V38.38H10.3561V36.872V36.3H9.78405H8.27605V36.872H9.38005L8.37205 37.88C7.89605 37.488 7.28405 37.256 6.62005 37.256C5.85605 37.256 5.16405 37.564 4.66405 38.068C4.16405 38.568 3.85205 39.26 3.85205 40.024C3.85205 40.788 4.16005 41.48 4.66405 41.98C5.16405 42.48 5.85605 42.792 6.62005 42.792C7.38405 42.792 8.07605 42.484 8.57605 41.98C9.07605 41.48 9.38805 40.788 9.38805 40.024C9.38805 39.368 9.15605 38.764 8.77605 38.288Z" fill="#0B4CA0"/>
<path fill-rule="evenodd" clip-rule="evenodd" d="M30.2359 24.796C29.5919 25.372 29.2159 25.768 28.6519 26.36C27.7279 27.332 26.3999 29.06 25.7519 30.152C20.6879 37.696 20.6239 46.316 24.2079 54.26C26.7959 59.52 32.1599 64.904 40.0199 64.956C45.7919 64.904 51.5279 61.972 55.4199 55.056C57.0799 52.392 58.1759 47.76 58.2639 45.048C58.3039 43.96 58.3039 43.704 58.2959 42.92C58.2319 41.672 58.1959 39.852 57.2799 36.548C56.9919 35.78 56.7839 34.904 56.2679 33.816C55.7879 32.8 54.9319 31.116 54.3079 30.292C53.7399 29.544 53.6679 29.376 53.0439 28.632C53.0079 28.592 52.0559 27.484 51.6159 27.108C50.5879 27.8 49.0479 28.236 47.6319 28.332C47.6759 28.48 47.6759 28.448 47.6999 28.604C48.0119 30.616 47.2719 33.796 46.5719 35.82L46.5759 35.812C47.3479 37.02 47.7959 38.456 47.7959 40C47.7959 44.304 44.3079 47.792 40.0039 47.792C35.6999 47.792 32.2119 44.304 32.2119 40C32.2119 38.96 32.4159 37.968 32.7839 37.064L32.8599 37.232C33.0239 37.588 33.1199 37.812 33.2519 38.088C34.4279 40.572 35.1439 43.136 38.2359 43.156C44.7039 43.204 47.7319 32.168 47.1279 28.652L47.0719 28.328C44.9519 28.228 43.5959 27.264 42.7559 26.392C42.3079 25.928 42.1359 25.4 42.1039 25.256L42.0279 24.992C41.7199 24.988 41.2079 25.732 41.7999 27.06C43.7999 32.356 43.7479 32.936 43.3399 35.032C39.9439 41.66 35.6239 38.696 39.9879 31.008C41.1799 28.912 41.6279 26.72 40.2199 24.428C39.8799 23.872 39.1039 22.936 38.5199 22.568C37.7079 22.052 36.3199 21.876 35.2599 22.06C33.3479 22.396 31.5799 23.664 30.2359 24.796Z" fill="#F5F5F5"/>
<path fill-rule="evenodd" clip-rule="evenodd" d="M27.7399 26.076C27.8319 26.128 27.9159 26.18 27.9879 26.224C30.3999 23.628 32.6119 22.444 34.4239 21.284C38.1559 18.9 37.1759 19.496 39.2799 18.492C38.6359 18.176 37.9959 17.88 37.3919 17.628C36.1079 17.088 34.7999 16.484 33.5159 16.192C29.4039 15.256 25.6919 18.256 25.9079 22.488C26.0639 23.932 26.7399 25.18 27.7399 26.076Z" fill="#F5F5F5"/>
<path fill-rule="evenodd" clip-rule="evenodd" d="M35.0879 21.528C36.2039 21.268 38.1519 21.496 39.0959 22.272C40.1039 23.104 40.8359 24.212 41.1599 25.052C41.5999 24.3 42.0279 24.44 42.4479 24.444C42.5879 24.936 42.6319 25.34 42.9279 25.724C43.5719 26.564 44.6239 27.248 45.7399 27.564C47.3239 28.012 49.2159 27.668 50.6639 27.008C51.0519 26.832 51.3199 26.64 51.6559 26.408C52.7119 25.676 53.5799 24.656 53.9519 23.348C54.8879 20.068 52.3359 16.3 48.5119 16.044C47.4879 15.948 46.4519 16.16 45.4839 16.484C44.4799 16.796 43.4639 17.22 42.4719 17.636C39.7639 18.768 36.2719 20.768 35.0879 21.528Z" fill="#F5F5F5"/>
<path d="M74.9399 38.564C74.5679 38.192 74.0479 37.96 73.4799 37.96C72.9079 37.96 72.3919 38.192 72.0199 38.564C71.6479 38.936 71.4159 39.456 71.4159 40.024C71.4159 40.596 71.6479 41.112 72.0199 41.484C72.3919 41.856 72.9119 42.088 73.4799 42.088C74.0519 42.088 74.5679 41.856 74.9399 41.484C75.3119 41.112 75.5439 40.592 75.5439 40.024C75.5439 39.456 75.3159 38.94 74.9399 38.564ZM73.4799 37.26C74.2439 37.26 74.9359 37.568 75.4359 38.072C75.9359 38.572 76.2479 39.264 76.2479 40.028C76.2479 40.792 75.9359 41.484 75.4359 41.984C74.9999 42.42 74.4199 42.712 73.7719 42.78C73.7679 42.992 73.7679 43.216 73.7679 43.48H74.5279V44.052H73.7679V44.812H73.1999V44.052H72.4399V43.484H73.1999V42.784C72.5479 42.72 71.9639 42.428 71.5239 41.988C71.0239 41.488 70.7119 40.796 70.7119 40.032C70.7119 39.268 71.0199 38.576 71.5239 38.076C72.0239 37.568 72.7159 37.26 73.4799 37.26Z" fill="#0B4CA0"/>
<path fill-rule="evenodd" clip-rule="evenodd" d="M39.9999 2.23199C60.8599 2.23199 77.7679 19.14 77.7679 40C77.7679 60.856 60.8599 77.768 39.9999 77.768C19.1439 77.768 2.23193 60.86 2.23193 40C2.23193 19.144 19.1439 2.23199 39.9999 2.23199ZM39.9999 1.17999C61.4399 1.17999 78.8199 18.56 78.8199 40C78.8199 61.44 61.4399 78.82 39.9999 78.82C18.5599 78.82 1.17993 61.44 1.17993 40C1.17993 18.56 18.5599 1.17999 39.9999 1.17999Z" fill="#0B4CA0"/>
<path fill-rule="evenodd" clip-rule="evenodd" d="M36.564 54.408C36.744 53.876 37.1 53.292 37.672 52.732C38.244 52.172 39.032 51.636 39.78 51.116C40.528 50.596 41.228 50.092 41.756 49.608C42.284 49.124 42.636 48.656 42.888 48.212C43.144 47.768 43.3 47.34 43.456 46.916C43.576 47.54 43.7 48.16 43.5 48.828C43.304 49.496 42.788 50.212 42.144 50.816C41.5 51.424 40.732 51.92 40.084 52.364C39.436 52.808 38.908 53.196 38.464 53.596C38.02 53.992 37.66 54.4 37.412 54.736C37.164 55.072 37.032 55.34 36.908 55.64C36.784 55.94 36.676 56.276 36.568 56.608C36.5 56.368 36.428 56.132 36.4 55.772C36.372 55.416 36.38 54.94 36.564 54.408Z" fill="#0B4CA0"/>
<path fill-rule="evenodd" clip-rule="evenodd" d="M39.5599 50.648C39.0639 50.292 38.6119 49.944 38.2439 49.604C37.7159 49.12 37.3639 48.652 37.1119 48.208C36.8559 47.764 36.6999 47.336 36.5439 46.912C36.4239 47.532 36.2999 48.156 36.4999 48.824C36.6959 49.492 37.2119 50.208 37.8559 50.812C38.0679 51.012 38.2919 51.2 38.5199 51.376L39.5599 50.648ZM41.0439 51.692C40.7719 51.496 40.4919 51.304 40.2199 51.116C40.1479 51.064 40.0719 51.012 39.9999 50.964L38.9479 51.704C39.2799 51.94 39.6079 52.16 39.9119 52.364L39.9999 52.424L41.0439 51.692ZM43.2839 54.04C43.0799 53.612 42.7679 53.164 42.3239 52.732C42.0639 52.48 41.7639 52.232 41.4399 51.988L40.4199 52.724C40.8439 53.028 41.2079 53.308 41.5279 53.596C41.9719 53.992 42.3319 54.4 42.5799 54.736C42.6759 54.868 42.7559 54.988 42.8239 55.104L43.2839 54.04Z" fill="#0B4CA0"/>
<path fill-rule="evenodd" clip-rule="evenodd" d="M40.4239 60.888C40.9239 61.248 41.3879 61.6 41.7599 61.944C42.2879 62.428 42.6399 62.896 42.8919 63.34C43.1479 63.784 43.3039 64.212 43.4599 64.636C43.5799 64.016 43.7039 63.392 43.5039 62.724C43.3079 62.056 42.7919 61.34 42.1479 60.736C41.9279 60.528 41.6919 60.332 41.4519 60.148L40.4239 60.888ZM38.9479 59.852C39.2199 60.048 39.5039 60.244 39.7799 60.436C39.8519 60.488 39.9279 60.54 39.9999 60.588L41.0519 59.848C40.7199 59.612 40.3879 59.392 40.0879 59.184L39.9999 59.124L38.9479 59.852ZM36.7039 57.488C36.9079 57.92 37.2239 58.376 37.6719 58.82C37.9319 59.072 38.2319 59.32 38.5559 59.564L39.5879 58.84C39.1599 58.532 38.7879 58.248 38.4639 57.956C38.0199 57.56 37.6599 57.152 37.4119 56.816C37.3079 56.676 37.2279 56.552 37.1559 56.428L36.7039 57.488Z" fill="#0B4CA0"/>
<path fill-rule="evenodd" clip-rule="evenodd" d="M43.4359 57.14C43.2559 57.672 42.8999 58.256 42.3279 58.816C41.7559 59.376 40.9679 59.912 40.2199 60.432C39.4719 60.952 38.7719 61.456 38.2439 61.94C37.7159 62.424 37.3639 62.892 37.1119 63.336C36.8599 63.78 36.6999 64.208 36.5439 64.632C36.4239 64.012 36.2999 63.388 36.4999 62.72C36.6959 62.052 37.2119 61.336 37.8559 60.732C38.4999 60.124 39.2679 59.628 39.9159 59.184C40.5639 58.74 41.0919 58.352 41.5359 57.952C41.9799 57.556 42.3399 57.148 42.5879 56.812C42.8359 56.476 42.9679 56.208 43.0919 55.908C43.2159 55.608 43.3239 55.272 43.4319 54.94C43.4999 55.18 43.5679 55.416 43.5999 55.776C43.6279 56.132 43.6199 56.608 43.4359 57.14Z" fill="#0B4CA0"/>
<path fill-rule="evenodd" clip-rule="evenodd" d="M43.484 56.792C41.692 56.864 39.896 56.94 38.104 57.012C39.848 57.124 41.592 57.236 43.336 57.344C43.384 57.164 43.432 56.976 43.484 56.792Z" fill="#0B4CA0"/>
<path fill-rule="evenodd" clip-rule="evenodd" d="M42.2319 57.94C41.2319 57.992 40.2319 58.048 39.2319 58.1C40.2319 58.184 41.2319 58.264 42.2319 58.348C42.2319 58.212 42.2319 58.076 42.2319 57.94Z" fill="#0B4CA0"/>
<path fill-rule="evenodd" clip-rule="evenodd" d="M43.484 56.032C41.396 55.948 39.308 55.868 37.22 55.784C39.288 55.68 41.356 55.58 43.42 55.476C43.444 55.664 43.464 55.848 43.484 56.032Z" fill="#0B4CA0"/>
<path fill-rule="evenodd" clip-rule="evenodd" d="M42.796 54.74C41.232 54.676 39.668 54.616 38.104 54.552C39.66 54.456 41.212 54.36 42.768 54.264C42.776 54.424 42.784 54.58 42.796 54.74Z" fill="#0B4CA0"/>
<path fill-rule="evenodd" clip-rule="evenodd" d="M42.2319 53.628C41.2319 53.576 40.2319 53.52 39.2319 53.468C40.2319 53.384 41.2319 53.304 42.2319 53.22C42.2319 53.352 42.2319 53.492 42.2319 53.628Z" fill="#0B4CA0"/>
<path fill-rule="evenodd" clip-rule="evenodd" d="M36.5598 64.26C38.6478 64.192 40.7318 64.124 42.8198 64.056C40.7558 63.94 38.6878 63.824 36.6238 63.708C36.5998 63.888 36.5798 64.072 36.5598 64.26Z" fill="#0B4CA0"/>
<path fill-rule="evenodd" clip-rule="evenodd" d="M36.5598 62.996C38.3518 62.924 40.1478 62.848 41.9398 62.776C40.1678 62.664 38.3918 62.552 36.6198 62.444C36.5998 62.628 36.5798 62.812 36.5598 62.996Z" fill="#0B4CA0"/>
<path fill-rule="evenodd" clip-rule="evenodd" d="M37.812 61.852C38.812 61.8 39.812 61.744 40.812 61.692C39.812 61.608 38.812 61.528 37.812 61.444C37.812 61.58 37.812 61.716 37.812 61.852Z" fill="#0B4CA0"/>
<path fill-rule="evenodd" clip-rule="evenodd" d="M36.5598 47.584C38.6478 47.652 40.7318 47.72 42.8198 47.788C40.7558 47.904 38.6878 48.02 36.6238 48.136C36.5998 47.952 36.5798 47.768 36.5598 47.584Z" fill="#0B4CA0"/>
<path fill-rule="evenodd" clip-rule="evenodd" d="M36.5598 48.684C38.3518 48.756 40.1478 48.832 41.9398 48.904C40.1678 49.016 38.3918 49.128 36.6198 49.236C36.5998 49.056 36.5798 48.868 36.5598 48.684Z" fill="#0B4CA0"/>
<path fill-rule="evenodd" clip-rule="evenodd" d="M37.812 49.724C38.812 49.776 39.812 49.832 40.812 49.884C39.812 49.968 38.812 50.048 37.812 50.132C37.812 49.996 37.812 49.86 37.812 49.724Z" fill="#0B4CA0"/>
</svg>
